<svg width="135" height="28" viewBox="0 0 135 28" fill="none" xmlns="http://www.w3.org/2000/svg">
<path d="M35.4215 21.184C34.9922 21.184 34.6625 21.0613 34.4325 20.816C34.2025 20.5707 34.0875 20.2333 34.0875 19.804V5.981C34.0875 5.53633 34.2102 5.199 34.4555 4.969C34.7008 4.72367 35.0382 4.601 35.4675 4.601C35.8508 4.601 36.1498 4.67767 36.3645 4.831C36.5945 4.969 36.8015 5.21433 36.9855 5.567L42.6665 16.078H41.9305L47.6115 5.567C47.7955 5.21433 47.9948 4.969 48.2095 4.831C48.4242 4.67767 48.7232 4.601 49.1065 4.601C49.5358 4.601 49.8655 4.72367 50.0955 4.969C50.3255 5.199 50.4405 5.53633 50.4405 5.981V19.804C50.4405 20.2333 50.3255 20.5707 50.0955 20.816C49.8808 21.0613 49.5512 21.184 49.1065 21.184C48.6772 21.184 48.3475 21.0613 48.1175 20.816C47.8875 20.5707 47.7725 20.2333 47.7725 19.804V9.155H48.2785L43.4485 17.964C43.2952 18.2247 43.1342 18.4163 42.9655 18.539C42.7968 18.6617 42.5668 18.723 42.2755 18.723C41.9842 18.723 41.7465 18.6617 41.5625 18.539C41.3785 18.401 41.2175 18.2093 41.0795 17.964L36.2035 9.132H36.7555V19.804C36.7555 20.2333 36.6405 20.5707 36.4105 20.816C36.1958 21.0613 35.8662 21.184 35.4215 21.184ZM59.2763 21.23C58.0036 21.23 56.9073 20.9923 55.9873 20.517C55.0673 20.0417 54.3543 19.367 53.8483 18.493C53.3576 17.619 53.1123 16.584 53.1123 15.388C53.1123 14.2227 53.3499 13.203 53.8253 12.329C54.3159 11.455 54.9829 10.7727 55.8263 10.282C56.6849 9.776 57.6586 9.523 58.7473 9.523C59.5446 9.523 60.2576 9.65333 60.8863 9.914C61.5303 10.1747 62.0746 10.5503 62.5193 11.041C62.9793 11.5317 63.3243 12.1297 63.5543 12.835C63.7996 13.525 63.9223 14.307 63.9223 15.181C63.9223 15.457 63.8226 15.6717 63.6233 15.825C63.4393 15.963 63.1709 16.032 62.8183 16.032H55.4353V14.376H61.8983L61.5303 14.721C61.5303 14.0157 61.4229 13.4253 61.2083 12.95C61.0089 12.4747 60.7099 12.1143 60.3113 11.869C59.9279 11.6083 59.4449 11.478 58.8623 11.478C58.2183 11.478 57.6663 11.6313 57.2063 11.938C56.7616 12.2293 56.4166 12.651 56.1713 13.203C55.9413 13.7397 55.8263 14.3837 55.8263 15.135V15.296C55.8263 16.5533 56.1176 17.4963 56.7003 18.125C57.2983 18.7383 58.1723 19.045 59.3223 19.045C59.7209 19.045 60.1656 18.999 60.6563 18.907C61.1623 18.7997 61.6376 18.6233 62.0823 18.378C62.4043 18.194 62.6879 18.1173 62.9333 18.148C63.1786 18.1633 63.3703 18.2477 63.5083 18.401C63.6616 18.5543 63.7536 18.746 63.7843 18.976C63.8149 19.1907 63.7689 19.413 63.6463 19.643C63.5389 19.873 63.3473 20.0723 63.0713 20.241C62.5346 20.5783 61.9136 20.8313 61.2083 21C60.5183 21.1533 59.8743 21.23 59.2763 21.23ZM67.6251 21.184C67.1651 21.184 66.8124 21.0613 66.5671 20.816C66.3218 20.5553 66.1991 20.1873 66.1991 19.712V11.018C66.1991 10.5427 66.3218 10.1823 66.5671 9.937C66.8124 9.69167 67.1574 9.569 67.6021 9.569C68.0468 9.569 68.3918 9.69167 68.6371 9.937C68.8824 10.1823 69.0051 10.5427 69.0051 11.018V12.582L68.7521 12.007C69.0894 11.1943 69.6108 10.581 70.3161 10.167C71.0368 9.73767 71.8494 9.523 72.7541 9.523C73.6588 9.523 74.4024 9.69167 74.9851 10.029C75.5678 10.3663 76.0048 10.88 76.2961 11.57C76.5874 12.2447 76.7331 13.1033 76.7331 14.146V19.712C76.7331 20.1873 76.6104 20.5553 76.3651 20.816C76.1198 21.0613 75.7671 21.184 75.3071 21.184C74.8471 21.184 74.4868 21.0613 74.2261 20.816C73.9808 20.5553 73.8581 20.1873 73.8581 19.712V14.284C73.8581 13.41 73.6894 12.7737 73.3521 12.375C73.0301 11.9763 72.5241 11.777 71.8341 11.777C70.9908 11.777 70.3161 12.0453 69.8101 12.582C69.3194 13.1033 69.0741 13.801 69.0741 14.675V19.712C69.0741 20.6933 68.5911 21.184 67.6251 21.184ZM84.8052 21.23C83.8085 21.23 82.9729 21.0613 82.2982 20.724C81.6389 20.3867 81.1482 19.896 80.8262 19.252C80.5042 18.5927 80.3432 17.78 80.3432 16.814V11.915H79.1472C78.7792 11.915 78.4955 11.823 78.2962 11.639C78.0969 11.4397 77.9972 11.1713 77.9972 10.834C77.9972 10.4813 78.0969 10.213 78.2962 10.029C78.4955 9.845 78.7792 9.753 79.1472 9.753H80.3432V7.66C80.3432 7.18467 80.4659 6.82433 80.7112 6.579C80.9719 6.33367 81.3322 6.211 81.7922 6.211C82.2522 6.211 82.6049 6.33367 82.8502 6.579C83.0955 6.82433 83.2182 7.18467 83.2182 7.66V9.753H85.6562C86.0242 9.753 86.3079 9.845 86.5072 10.029C86.7065 10.213 86.8062 10.4813 86.8062 10.834C86.8062 11.1713 86.7065 11.4397 86.5072 11.639C86.3079 11.823 86.0242 11.915 85.6562 11.915H83.2182V16.653C83.2182 17.389 83.3792 17.941 83.7012 18.309C84.0232 18.677 84.5445 18.861 85.2652 18.861C85.5259 18.861 85.7559 18.838 85.9552 18.792C86.1545 18.746 86.3309 18.7153 86.4842 18.7C86.6682 18.6847 86.8215 18.746 86.9442 18.884C87.0669 19.0067 87.1282 19.2673 87.1282 19.666C87.1282 19.9727 87.0745 20.2487 86.9672 20.494C86.8752 20.724 86.6989 20.885 86.4382 20.977C86.2389 21.0383 85.9782 21.092 85.6562 21.138C85.3342 21.1993 85.0505 21.23 84.8052 21.23ZM93.497 21.23C92.3317 21.23 91.3197 20.9923 90.461 20.517C89.6024 20.0417 88.9354 19.367 88.46 18.493C87.9847 17.6037 87.747 16.561 87.747 15.365C87.747 14.4603 87.8774 13.6553 88.138 12.95C88.414 12.2293 88.805 11.616 89.311 11.11C89.817 10.5887 90.4227 10.1977 91.128 9.937C91.8334 9.661 92.623 9.523 93.497 9.523C94.6624 9.523 95.6744 9.76067 96.533 10.236C97.3917 10.7113 98.0587 11.386 98.534 12.26C99.0094 13.134 99.247 14.169 99.247 15.365C99.247 16.2697 99.109 17.0823 98.833 17.803C98.5724 18.5237 98.189 19.1447 97.683 19.666C97.177 20.172 96.5714 20.563 95.866 20.839C95.1607 21.0997 94.371 21.23 93.497 21.23ZM93.497 19.045C94.0644 19.045 94.5627 18.907 94.992 18.631C95.4214 18.355 95.751 17.9487 95.981 17.412C96.2264 16.86 96.349 16.1777 96.349 15.365C96.349 14.1383 96.0884 13.226 95.567 12.628C95.0457 12.0147 94.3557 11.708 93.497 11.708C92.9297 11.708 92.4314 11.846 92.002 12.122C91.5727 12.3827 91.2354 12.789 90.99 13.341C90.76 13.8777 90.645 14.5523 90.645 15.365C90.645 16.5763 90.9057 17.4963 91.427 18.125C91.9484 18.7383 92.6384 19.045 93.497 19.045ZM103.092 21.184C102.617 21.184 102.249 21.0613 101.988 20.816C101.743 20.5553 101.62 20.1873 101.62 19.712V11.018C101.62 10.5427 101.743 10.1823 101.988 9.937C102.233 9.69167 102.578 9.569 103.023 9.569C103.468 9.569 103.813 9.69167 104.058 9.937C104.303 10.1823 104.426 10.5427 104.426 11.018V12.467H104.196C104.411 11.547 104.832 10.8493 105.461 10.374C106.09 9.89867 106.925 9.615 107.968 9.523C108.29 9.49233 108.543 9.57667 108.727 9.776C108.926 9.96 109.041 10.2513 109.072 10.65C109.103 11.0333 109.011 11.3477 108.796 11.593C108.597 11.823 108.29 11.961 107.876 12.007L107.37 12.053C106.435 12.145 105.729 12.4363 105.254 12.927C104.779 13.4023 104.541 14.077 104.541 14.951V19.712C104.541 20.1873 104.418 20.5553 104.173 20.816C103.928 21.0613 103.567 21.184 103.092 21.184ZM114.218 21.23C113.405 21.23 112.677 21.0767 112.033 20.77C111.404 20.448 110.906 20.0187 110.538 19.482C110.185 18.9453 110.009 18.3397 110.009 17.665C110.009 16.837 110.223 16.1853 110.653 15.71C111.082 15.2193 111.78 14.8667 112.746 14.652C113.712 14.4373 115.007 14.33 116.633 14.33H117.783V15.986H116.656C115.705 15.986 114.946 16.032 114.379 16.124C113.811 16.216 113.405 16.377 113.16 16.607C112.93 16.8217 112.815 17.1283 112.815 17.527C112.815 18.033 112.991 18.447 113.344 18.769C113.696 19.091 114.187 19.252 114.816 19.252C115.322 19.252 115.766 19.137 116.15 18.907C116.548 18.6617 116.863 18.332 117.093 17.918C117.323 17.504 117.438 17.0287 117.438 16.492V13.847C117.438 13.0803 117.269 12.5283 116.932 12.191C116.594 11.8537 116.027 11.685 115.23 11.685C114.785 11.685 114.302 11.7387 113.781 11.846C113.275 11.9533 112.738 12.1373 112.171 12.398C111.879 12.536 111.619 12.5743 111.389 12.513C111.174 12.4517 111.005 12.329 110.883 12.145C110.76 11.9457 110.699 11.731 110.699 11.501C110.699 11.271 110.76 11.0487 110.883 10.834C111.005 10.604 111.212 10.4353 111.504 10.328C112.209 10.0367 112.884 9.82967 113.528 9.707C114.187 9.58433 114.785 9.523 115.322 9.523C116.426 9.523 117.33 9.69167 118.036 10.029C118.756 10.3663 119.293 10.88 119.646 11.57C119.998 12.2447 120.175 13.1187 120.175 14.192V19.712C120.175 20.1873 120.06 20.5553 119.83 20.816C119.6 21.0613 119.27 21.184 118.841 21.184C118.411 21.184 118.074 21.0613 117.829 20.816C117.599 20.5553 117.484 20.1873 117.484 19.712V18.608H117.668C117.56 19.1447 117.346 19.6123 117.024 20.011C116.717 20.3943 116.326 20.6933 115.851 20.908C115.375 21.1227 114.831 21.23 114.218 21.23ZM128.636 21.23C127.363 21.23 126.267 20.9923 125.347 20.517C124.427 20.0417 123.714 19.367 123.208 18.493C122.717 17.619 122.472 16.584 122.472 15.388C122.472 14.2227 122.709 13.203 123.185 12.329C123.675 11.455 124.342 10.7727 125.186 10.282C126.044 9.776 127.018 9.523 128.107 9.523C128.904 9.523 129.617 9.65333 130.246 9.914C130.89 10.1747 131.434 10.5503 131.879 11.041C132.339 11.5317 132.684 12.1297 132.914 12.835C133.159 13.525 133.282 14.307 133.282 15.181C133.282 15.457 133.182 15.6717 132.983 15.825C132.799 15.963 132.53 16.032 132.178 16.032H124.795V14.376H131.258L130.89 14.721C130.89 14.0157 130.782 13.4253 130.568 12.95C130.368 12.4747 130.069 12.1143 129.671 11.869C129.287 11.6083 128.804 11.478 128.222 11.478C127.578 11.478 127.026 11.6313 126.566 11.938C126.121 12.2293 125.776 12.651 125.531 13.203C125.301 13.7397 125.186 14.3837 125.186 15.135V15.296C125.186 16.5533 125.477 17.4963 126.06 18.125C126.658 18.7383 127.532 19.045 128.682 19.045C129.08 19.045 129.525 18.999 130.016 18.907C130.522 18.7997 130.997 18.6233 131.442 18.378C131.764 18.194 132.047 18.1173 132.293 18.148C132.538 18.1633 132.73 18.2477 132.868 18.401C133.021 18.5543 133.113 18.746 133.144 18.976C133.174 19.1907 133.128 19.413 133.006 19.643C132.898 19.873 132.707 20.0723 132.431 20.241C131.894 20.5783 131.273 20.8313 130.568 21C129.878 21.1533 129.234 21.23 128.636 21.23ZM131.396 7.269C131.534 7.51433 131.564 7.73667 131.488 7.936C131.411 8.13533 131.281 8.28867 131.097 8.396C130.913 8.488 130.713 8.51867 130.499 8.488C130.299 8.45733 130.131 8.33467 129.993 8.12L128.13 5.222L126.267 8.12C126.129 8.33467 125.952 8.45733 125.738 8.488C125.538 8.51867 125.347 8.488 125.163 8.396C124.979 8.28867 124.848 8.13533 124.772 7.936C124.695 7.73667 124.726 7.51433 124.864 7.269L126.52 4.233C126.704 3.88033 126.926 3.61967 127.187 3.451C127.463 3.28233 127.777 3.198 128.13 3.198C128.482 3.198 128.797 3.28233 129.073 3.451C129.349 3.61967 129.579 3.88033 129.763 4.233L131.396 7.269Z" fill="#6300B3"/>
<path d="M12.32 12.7582H12.3258M14.6133 9.17214V7.97679C14.6133 7.65976 14.4925 7.35572 14.2774 7.13154C14.0624 6.90737 13.7708 6.78143 13.4667 6.78143H11.1734C10.8693 6.78143 10.5777 6.90737 10.3626 7.13154C10.1476 7.35572 10.0268 7.65976 10.0268 7.97679V9.17214M18.0531 13.3559C16.352 14.5267 14.3585 15.1509 12.32 15.1509C10.2816 15.1509 8.28805 14.5267 6.58691 13.3559M7.73354 9.17214H16.9065C17.5398 9.17214 18.0531 9.70732 18.0531 10.3675V16.3443C18.0531 17.0044 17.5398 17.5396 16.9065 17.5396H7.73354C7.10027 17.5396 6.58691 17.0044 6.58691 16.3443V10.3675C6.58691 9.70732 7.10027 9.17214 7.73354 9.17214Z" stroke="#6300B3" stroke-width="1.00962" stroke-linecap="round" stroke-linejoin="round"/>
<path d="M24.9325 25.9071L19.4542 20.196M22.3844 12.6254C22.3844 18.4936 17.8212 23.2508 12.1922 23.2508C6.56321 23.2508 2 18.4936 2 12.6254C2 6.75714 6.56321 2 12.1922 2C17.8212 2 22.3844 6.75714 22.3844 12.6254Z" stroke="#6300B3" stroke-width="2.39071" stroke-linecap="round" stroke-linejoin="round"/>
</svg>
