<svg width="27" height="28" viewBox="0 0 27 28" fill="none" xmlns="http://www.w3.org/2000/svg">
<path d="M12.32 12.7582H12.3258M14.6133 9.17214V7.97679C14.6133 7.65976 14.4925 7.35572 14.2774 7.13154C14.0624 6.90737 13.7708 6.78143 13.4667 6.78143H11.1734C10.8693 6.78143 10.5777 6.90737 10.3626 7.13154C10.1476 7.35572 10.0268 7.65976 10.0268 7.97679V9.17214M18.0531 13.3559C16.352 14.5267 14.3585 15.1509 12.32 15.1509C10.2816 15.1509 8.28805 14.5267 6.58691 13.3559M7.73354 9.17214H16.9065C17.5398 9.17214 18.0531 9.70732 18.0531 10.3675V16.3443C18.0531 17.0044 17.5398 17.5396 16.9065 17.5396H7.73354C7.10027 17.5396 6.58691 17.0044 6.58691 16.3443V10.3675C6.58691 9.70732 7.10027 9.17214 7.73354 9.17214Z" stroke="#6300B3" stroke-width="1.00962" stroke-linecap="round" stroke-linejoin="round"/>
<path d="M24.9325 25.9071L19.4542 20.196M22.3844 12.6254C22.3844 18.4936 17.8212 23.2508 12.1922 23.2508C6.56321 23.2508 2 18.4936 2 12.6254C2 6.75714 6.56321 2 12.1922 2C17.8212 2 22.3844 6.75714 22.3844 12.6254Z" stroke="#6300B3" stroke-width="2.39071" stroke-linecap="round" stroke-linejoin="round"/>
</svg>
